<svg width="36" height="36" viewBox="0 0 36 36" fill="none" xmlns="http://www.w3.org/2000/svg">
<path d="M18 36.0001C27.9411 36.0001 36 27.9412 36 18.0001C36 8.05894 27.9411 6.10352e-05 18 6.10352e-05C8.05888 6.10352e-05 0 8.05894 0 18.0001C0 27.9412 8.05888 36.0001 18 36.0001Z" fill="#3C5A9A"/>
<path d="M23.8529 5.52509H19.8655C17.4992 5.52509 14.8672 6.52031 14.8672 9.95033C14.8788 11.1455 14.8672 12.2901 14.8672 13.5783H12.1298V17.9344H14.9519V30.4749H20.1378V17.8516H23.5607L23.8704 13.566H20.0485C20.0485 13.566 20.057 11.6596 20.0485 11.106C20.0485 9.75053 21.4589 9.82816 21.5437 9.82816C22.2149 9.82816 23.5199 9.83011 23.8549 9.82816V5.52509H23.8529Z" fill="white"/>
</svg>
