<svg width="33" height="34" viewBox="0 0 33 34" fill="none" xmlns="http://www.w3.org/2000/svg">
<path d="M32.9999 17.2152C32.9999 15.8305 32.8876 14.8201 32.6445 13.7722H16.8366V20.022H26.1155C25.9285 21.5751 24.9183 23.9142 22.6733 25.4859L22.6419 25.6951L27.64 29.5681L27.9863 29.6027C31.1665 26.6648 32.9999 22.3423 32.9999 17.2152Z" fill="#4285F4"/>
<path d="M16.8368 33.6818C21.3827 33.6818 25.199 32.1847 27.9865 29.6025L22.6735 25.4858C21.2518 26.4775 19.3436 27.1699 16.8368 27.1699C12.3845 27.1699 8.60561 24.2322 7.25855 20.1716L7.0611 20.1884L1.86396 24.2115L1.79599 24.4005C4.56467 29.9018 10.2518 33.6818 16.8368 33.6818Z" fill="#34A853"/>
<path d="M7.25843 20.1717C6.903 19.1238 6.69729 18.001 6.69729 16.8409C6.69729 15.6807 6.903 14.558 7.23973 13.5101L7.23032 13.287L1.96805 9.19922L1.79588 9.28113C0.654769 11.564 0 14.1276 0 16.8409C0 19.5541 0.654769 22.1176 1.79588 24.4005L7.25843 20.1717Z" fill="#FBBC05"/>
<path d="M16.8368 6.51177C19.9984 6.51177 22.131 7.87775 23.347 9.01926L28.0987 4.37863C25.1804 1.66538 21.3827 0 16.8368 0C10.2518 0 4.56467 3.77982 1.79599 9.28113L7.23985 13.5101C8.60561 9.44961 12.3845 6.51177 16.8368 6.51177Z" fill="#EB4335"/>
</svg>
