<svg width="29" height="19" viewBox="0 0 29 19" fill="none" xmlns="http://www.w3.org/2000/svg">
<path d="M22.4669 4.26377C20.6064 3.0451 18.1508 2.28705 15.5234 2.12031C12.8961 1.95356 10.2617 2.38856 8.0744 3.35033C5.8871 4.31209 4.28396 5.74034 3.54139 7.38885C2.79881 9.03735 2.96332 10.8028 4.00656 12.3808C4.1153 12.5275 4.15097 12.6926 4.10862 12.8531L3.11076 15.9745C3.07232 16.0942 3.08017 16.2182 3.13361 16.3354C3.18705 16.4526 3.2844 16.5593 3.41692 16.646C3.52556 16.7162 3.6549 16.7713 3.79717 16.8081C3.93943 16.8449 4.09166 16.8625 4.24469 16.86H4.47147L9.32469 16.2254C9.57135 16.2061 9.82149 16.229 10.0504 16.2918C12.4753 16.9707 15.1882 17.0777 17.7214 16.5945C20.2546 16.1113 22.4494 15.068 23.9273 13.6446C25.4052 12.2212 26.0736 10.5068 25.8174 8.79706C25.5612 7.0873 24.3963 5.48929 22.5236 4.27853L22.4669 4.26377ZM9.91433 10.2187C9.69006 10.2187 9.47083 10.1755 9.28435 10.0944C9.09788 10.0133 8.95254 9.89806 8.86672 9.76322C8.78089 9.62838 8.75844 9.48001 8.80219 9.33687C8.84594 9.19373 8.95394 9.06225 9.11252 8.95905C9.27111 8.85585 9.47315 8.78557 9.69311 8.75709C9.91307 8.72862 10.1411 8.74323 10.3483 8.79909C10.5555 8.85494 10.7326 8.94952 10.8572 9.07087C10.9818 9.19222 11.0483 9.33488 11.0483 9.48083C11.0483 9.67654 10.9288 9.86423 10.7161 10.0026C10.5035 10.141 10.2151 10.2187 9.91433 10.2187ZM14.45 10.2187C14.2258 10.2187 14.0065 10.1755 13.8201 10.0944C13.6336 10.0133 13.4883 9.89806 13.4024 9.76322C13.3166 9.62838 13.2942 9.48001 13.3379 9.33687C13.3817 9.19373 13.4897 9.06225 13.6482 8.95905C13.8068 8.85585 14.0089 8.78557 14.2288 8.75709C14.4488 8.72862 14.6768 8.74323 14.884 8.79909C15.0912 8.85494 15.2683 8.94952 15.3929 9.07087C15.5175 9.19222 15.584 9.33488 15.584 9.48083C15.584 9.67654 15.4645 9.86423 15.2519 10.0026C15.0392 10.141 14.7508 10.2187 14.45 10.2187ZM18.9858 10.2187C18.7615 10.2187 18.5423 10.1755 18.3558 10.0944C18.1693 10.0133 18.024 9.89806 17.9381 9.76322C17.8523 9.62838 17.8299 9.48001 17.8736 9.33687C17.9174 9.19373 18.0254 9.06225 18.184 8.95905C18.3425 8.85585 18.5446 8.78557 18.7645 8.75709C18.9845 8.72862 19.2125 8.74323 19.4197 8.79909C19.6269 8.85494 19.804 8.94952 19.9286 9.07087C20.0532 9.19222 20.1197 9.33488 20.1197 9.48083C20.1197 9.67654 20.0002 9.86423 19.7876 10.0026C19.5749 10.141 19.2865 10.2187 18.9858 10.2187Z" fill="#FF004D"/>
</svg>
