<svg width="15" height="17" viewBox="0 0 15 17" fill="none" xmlns="http://www.w3.org/2000/svg">
<path d="M14.4868 0H2.70107C1.99201 0.000215147 1.31153 0.277243 0.806853 0.771157C0.302172 1.26507 0.01386 1.93616 0.00428571 2.63925L0 2.63394V14.3214C0.000142029 15.0318 0.284764 15.713 0.791282 16.2153C1.2978 16.7176 1.98475 16.9999 2.70107 17H11.8082C12.3996 17 12.8571 16.524 12.8571 15.9375V4.78125C12.8571 4.488 12.6396 4.25 12.3439 4.25H2.70107C1.80214 4.25 1.07143 3.56894 1.07143 2.67856C1.07185 2.25009 1.24368 1.83928 1.54921 1.5363C1.85473 1.23332 2.26899 1.06292 2.70107 1.0625H13.9286V13.2812C13.9286 13.5745 14.1911 13.8125 14.4868 13.8125C14.7825 13.8125 15 13.5745 15 13.2812V0.53125C15 0.238 14.7825 0 14.4868 0ZM2.70107 5.3125H11.7868L11.8082 15.9375H2.70107C2.26899 15.9371 1.85473 15.7667 1.54921 15.4637C1.24368 15.1607 1.07185 14.7499 1.07143 14.3214V4.79294C1.52143 5.12019 2.08393 5.3125 2.70107 5.3125Z" fill="black"/>
</svg>
