<svg width="41" height="39" viewBox="0 0 41 39" fill="none" xmlns="http://www.w3.org/2000/svg">
<path d="M20.4999 6.5C22.3122 6.5 24.0503 7.18482 25.3318 8.40381C26.6133 9.62279 27.3333 11.2761 27.3333 13C27.3333 14.7239 26.6133 16.3772 25.3318 17.5962C24.0503 18.8152 22.3122 19.5 20.4999 19.5C18.6876 19.5 16.9495 18.8152 15.668 17.5962C14.3865 16.3772 13.6666 14.7239 13.6666 13C13.6666 11.2761 14.3865 9.62279 15.668 8.40381C16.9495 7.18482 18.6876 6.5 20.4999 6.5ZM20.4999 22.75C28.0508 22.75 34.1666 25.6588 34.1666 29.25V32.5H6.83325V29.25C6.83325 25.6588 12.9491 22.75 20.4999 22.75Z" fill="black"/>
</svg>
